# xmcd
#
# Track frame offsets:
# 150
# 18698
# 68238
# 101441
# 120474
# 142224
# 162222
# 184780
# 205605
# 222670
# 239871
# 253521
# 272186
# 286525
#
# Disc length: 4158 seconds
#
#
# Revision: 0
# Processed by: cddbd v1.5.1PL2 Copyright (c) Steve Scherf et al.
# Submitted via: FreeRIP 2.945 
#
DISCID=d8103c0e
DTITLE=Ayawaska - Instrumental - The Traditional Music From The Andes - Bolivia-Peru - Spaans
DYEAR=1900
DGENRE=Folk
TTITLE0=Encuentros
TTITLE1=Llaqui Runa
TTITLE2=La Oracion Del Mitayo
TTITLE3=El Pituco
TTITLE4=Danza Caporal
TTITLE5=El Pastor Solitario
TTITLE6=Dos Aguas
TTITLE7=Mi Corazon Va Contige (Love Theme From Titanic)
TTITLE8=Un Angel
TTITLE9=Dejalo Ser (Let It Be)
TTITLE10=Pachamama
TTITLE11=Con Te Partiro
TTITLE12=Tico Tico
TTITLE13=Condor Pasa
EXTD=
EXTT0=
EXTT1=
EXTT2=
EXTT3=
EXTT4=
EXTT5=
EXTT6=
EXTT7=
EXTT8=
EXTT9=
EXTT10=
EXTT11=
EXTT12=
EXTT13=
PLAYORDER=
